<?xml version="1.0" encoding="UTF-8" standalone="no"?>
<!DOCTYPE svg PUBLIC "-//W3C//DTD SVG 1.1//EN"
 "http://www.w3.org/Graphics/SVG/1.1/DTD/svg11.dtd">
<!-- Generated by graphviz version 2.38.0 (20140413.2041)
 -->
<!-- Title: full Pages: 1 -->
<svg width="511pt" height="368pt"
 viewBox="0.00 0.00 511.46 368.50" xmlns="http://www.w3.org/2000/svg" xmlns:xlink="http://www.w3.org/1999/xlink">
<g id="graph0" class="graph" transform="scale(1 1) rotate(0) translate(4 364.5)">
<title>full</title>
<polygon fill="white" stroke="none" points="-4,4 -4,-364.5 507.46,-364.5 507.46,4 -4,4"/>
<!-- 0 -->
<g id="node1" class="node"><title>0</title>
<ellipse fill="none" stroke="black" cx="251.73" cy="-48.0833" rx="251.96" ry="48.1667"/>
<text text-anchor="middle" x="251.73" y="-66.8833" font-family="Times,serif" font-size="14.00">&quot;uid=639d5269&#45;d73d&#45;4964&#45;a7de&#45;d6f386c9c7e4</text>
<text text-anchor="middle" x="251.73" y="-51.8833" font-family="Times,serif" font-size="14.00">namespace=kube&#45;system</text>
<text text-anchor="middle" x="251.73" y="-36.8833" font-family="Times,serif" font-size="14.00">Deployment.v1.apps/kube&#45;hpa</text>
<text text-anchor="middle" x="251.73" y="-21.8833" font-family="Times,serif" font-size="14.00">&quot;</text>
</g>
<!-- 1 -->
<g id="node2" class="node"><title>1</title>
<ellipse fill="none" stroke="black" cx="251.73" cy="-180.25" rx="248.803" ry="48.1667"/>
<text text-anchor="middle" x="251.73" y="-199.05" font-family="Times,serif" font-size="14.00">&quot;uid=e66e45c0&#45;5695&#45;4c93&#45;82f1&#45;067b20aa035f</text>
<text text-anchor="middle" x="251.73" y="-184.05" font-family="Times,serif" font-size="14.00">namespace=kube&#45;system</text>
<text text-anchor="middle" x="251.73" y="-169.05" font-family="Times,serif" font-size="14.00">ReplicaSet.v1.apps/kube&#45;hpa&#45;84c884f994</text>
<text text-anchor="middle" x="251.73" y="-154.05" font-family="Times,serif" font-size="14.00">&quot;</text>
</g>
<!-- 1&#45;&gt;0 -->
<g id="edge1" class="edge"><title>1&#45;&gt;0</title>
<path fill="none" stroke="black" d="M251.73,-131.888C251.73,-123.62 251.73,-114.938 251.73,-106.435"/>
<polygon fill="black" stroke="black" points="255.23,-106.191 251.73,-96.1914 248.23,-106.191 255.23,-106.191"/>
</g>
<!-- 2 -->
<g id="node3" class="node"><title>2</title>
<ellipse fill="none" stroke="black" cx="251.73" cy="-312.416" rx="249.717" ry="48.1667"/>
<text text-anchor="middle" x="251.73" y="-331.216" font-family="Times,serif" font-size="14.00">&quot;uid=9833c399&#45;b139&#45;4432&#45;98f7&#45;cec13158f804</text>
<text text-anchor="middle" x="251.73" y="-316.216" font-family="Times,serif" font-size="14.00">namespace=kube&#45;system</text>
<text text-anchor="middle" x="251.73" y="-301.216" font-family="Times,serif" font-size="14.00">Pod.v1/kube&#45;hpa&#45;84c884f994&#45;7gwpz</text>
<text text-anchor="middle" x="251.73" y="-286.216" font-family="Times,serif" font-size="14.00">&quot;</text>
</g>
<!-- 2&#45;&gt;1 -->
<g id="edge2" class="edge"><title>2&#45;&gt;1</title>
<path fill="none" stroke="black" d="M251.73,-264.055C251.73,-255.786 251.73,-247.105 251.73,-238.602"/>
<polygon fill="black" stroke="black" points="255.23,-238.358 251.73,-228.358 248.23,-238.358 255.23,-238.358"/>
</g>
</g>
</svg>
